<svg xmlns="http://www.w3.org/2000/svg" viewBox="0 0 748.98 678.46"><defs><style>.cls-1,.cls-2{fill:none;stroke:#445572;}.cls-1{stroke-miterlimit:10;stroke-width:17.75px;}.cls-2{stroke-linecap:round;stroke-linejoin:round;stroke-width:19.53px;}</style></defs><g id="圖層_2" data-name="圖層 2"><g id="圖層_1-2" data-name="圖層 1"><path class="cls-1" d="M224.8,664S185.58,685.58,198,644s22.31-123-61.29-98.86-81-39.22-78.2-48.14,4.7-27.24-4.69-37.81,0-27.71,0-27.71-25.6-5.17-8.93-35.23c0,0,14.09-23.24-18.31-24.65s-12.92-32.17,0-44.86,30.76-39.68,30.76-39.68,13.39-12,3.76-54.95,41.33-131,41.33-131S173.7-21.11,366.76,15.84,550.43,231.26,493.44,347.11s-53.22,152.79-52.6,208.53C440.84,555.64,380.1,620.77,224.8,664Z"/><path class="cls-1" d="M522.47,664s39.53,21.61,27-20S527,521,611.23,545.15s81.66-39.22,78.82-48.14-4.73-27.24,4.73-37.81,0-27.71,0-27.71,25.8-5.17,9-35.23c0,0-14.2-23.24,18.46-24.65s13-32.17,0-44.86-31-39.68-31-39.68-13.49-12-3.78-54.95-41.66-131-41.66-131S574-21.11,379.38,15.84,194.25,231.26,251.69,347.11s53.65,152.79,53,208.53C304.71,555.64,365.93,620.77,522.47,664Z"/><polyline class="cls-2" points="232.8 247.18 300.8 247.18 317.8 275.36 343.3 125.06 370.5 339.23 407.9 125.06 433.4 273.48 445.3 232.15 513.72 232.15"/></g></g></svg>